<svg xmlns="http://www.w3.org/2000/svg" width="27" height="27" viewBox="0 0 27 27">
  <g id="_6647240751582779174" data-name="6647240751582779174" transform="translate(-0.002)">
    <g id="Group_396" data-name="Group 396" transform="translate(0.002)">
      <path id="Path_461" data-name="Path 461" d="M1.622,1.62A5.32,5.32,0,0,1,5.525,0H21.479a5.32,5.32,0,0,1,3.9,1.62A5.32,5.32,0,0,1,27,5.523V21.477A5.532,5.532,0,0,1,21.479,27H5.525a5.32,5.32,0,0,1-3.9-1.62A5.32,5.32,0,0,1,0,21.477V5.523A5.322,5.322,0,0,1,1.622,1.62Zm.834,19.857a2.955,2.955,0,0,0,.9,2.167,2.954,2.954,0,0,0,2.167.9H21.479a3.077,3.077,0,0,0,3.068-3.068V5.523a2.955,2.955,0,0,0-.9-2.167,2.955,2.955,0,0,0-2.167-.9H5.525a2.954,2.954,0,0,0-2.167.9,2.955,2.955,0,0,0-.9,2.167V21.477Z" transform="translate(-0.002)" fill="#7c828d"/>
      <path id="Path_462" data-name="Path 462" d="M73.706,182.731H89.66a.59.59,0,0,1,.614.613v1.227a.59.59,0,0,1-.614.613H73.706a.589.589,0,0,1-.614-.613v-1.227a.59.59,0,0,1,.614-.613Z" transform="translate(-68.183 -170.458)" fill="#7c828d"/>
    </g>
  </g>
</svg>
