<svg id="Icons" xmlns="http://www.w3.org/2000/svg" width="24.286" height="17" viewBox="0 0 24.286 17">
  <g id="Rounded">
    <g id="AV">
      <g id="_-Round-_-AV-_-playlist_add" data-name="-Round-/-AV-/-playlist_add" transform="translate(0 0)">
        <g id="Group_379" data-name="Group 379" transform="translate(0 0)">
          <path id="_Icon-Color" data-name="🔹Icon-Color" d="M15.357,9.857H3.214a1.214,1.214,0,0,0,0,2.429H15.357a1.214,1.214,0,1,0,0-2.429Zm0-4.857H3.214a1.214,1.214,0,0,0,0,2.429H15.357a1.214,1.214,0,0,0,0-2.429Zm6.071,9.714V11.071a1.214,1.214,0,1,0-2.429,0v3.643H15.357a1.214,1.214,0,0,0,0,2.429H19v3.643a1.214,1.214,0,0,0,2.429,0V17.143h3.643a1.214,1.214,0,1,0,0-2.429ZM3.214,17.143H10.5a1.214,1.214,0,0,0,0-2.429H3.214a1.214,1.214,0,0,0,0,2.429Z" transform="translate(-2 -5)" fill="#fff700" fill-rule="evenodd"/>
        </g>
      </g>
    </g>
  </g>
</svg>
