<svg xmlns="http://www.w3.org/2000/svg" width="26.518" height="31.935" viewBox="0 0 26.518 31.935">
  <path id="robot-svgrepo-com" d="M145.7,73.409a2.139,2.139,0,1,0,2.139-2.139A2.139,2.139,0,0,0,145.7,73.409ZM165.377,64H141.141A1.139,1.139,0,0,0,140,65.141V88.664a1.139,1.139,0,0,0,1.141,1.141h24.236a1.139,1.139,0,0,0,1.141-1.141V65.141A1.139,1.139,0,0,0,165.377,64Zm-1.141,23.524H142.281V66.281h21.955Zm-7.7-14.114a2.139,2.139,0,1,0,2.139-2.139A2.139,2.139,0,0,0,156.538,73.409Zm8.918,19.817H141.062A1.1,1.1,0,0,0,140,94.367V95.65a.275.275,0,0,0,.264.285H166.25a.275.275,0,0,0,.264-.285V94.367A1.1,1.1,0,0,0,165.455,93.226Zm-6.779-13.4H147.841a.286.286,0,0,0-.285.285v2.139a.286.286,0,0,0,.285.285h10.835a.286.286,0,0,0,.285-.285V80.11A.286.286,0,0,0,158.676,79.825Z" transform="translate(-140 -64)" fill="#7c828d"/>
</svg>
