<svg id="bell" xmlns="http://www.w3.org/2000/svg" width="22.5" height="27" viewBox="0 0 22.5 27">
  <path id="Path_159" data-name="Path 159" d="M21.8,19.027a7.536,7.536,0,0,1-2.676-5.766V10.125a7.881,7.881,0,0,0-6.75-7.785V1.125a1.125,1.125,0,0,0-2.25,0V2.34a7.88,7.88,0,0,0-6.75,7.785v3.136A7.543,7.543,0,0,1,.688,19.036,1.969,1.969,0,0,0,1.969,22.5H20.531a1.969,1.969,0,0,0,1.27-3.473Zm0,0" transform="translate(0)" fill="#fff"/>
  <path id="Path_160" data-name="Path 160" d="M139.086,451.375A4.225,4.225,0,0,0,143.22,448h-8.267A4.226,4.226,0,0,0,139.086,451.375Zm0,0" transform="translate(-127.836 -424.375)" fill="#fff"/>
</svg>
