<svg xmlns="http://www.w3.org/2000/svg" width="29.876" height="29.872" viewBox="0 0 29.876 29.872">
  <g id="_7228874001595234987" data-name="7228874001595234987" transform="translate(-2.096 -2.1)">
    <path id="Path_426" data-name="Path 426" d="M11,21.956v8.638H30.435V9" transform="translate(0.638 0.478)" fill="none" stroke="#7C828D" stroke-linecap="round" stroke-linejoin="round" stroke-width="1.8"/>
    <path id="Path_427" data-name="Path 427" d="M23.956,3V9.478h6.478L23.956,3H11V13.8" transform="translate(0.638)" fill="none" stroke="#7C828D" stroke-linecap="round" stroke-linejoin="round" stroke-width="1.8"/>
    <path id="Path_428" data-name="Path 428" d="M12.718,20.638A6.236,6.236,0,0,1,8.291,22.8,5.485,5.485,0,0,1,3,17.291,5.393,5.393,0,0,1,8.4,12a5.472,5.472,0,0,1,4.319,2.159h9.717L24.594,17.4l-2.159,3.239h-.216l-1.943-1.943-1.943,1.943h-1.4l-2.051-2.159h0Z" transform="translate(0 0.717)" fill="none" stroke="#7C828D" stroke-linecap="round" stroke-linejoin="round" stroke-width="1.8"/>
    <line id="Line_57" data-name="Line 57" x2="1" transform="translate(6.072 18.072)" fill="none" stroke="#7C828D" stroke-linecap="round" stroke-linejoin="round" stroke-width="1.8"/>
  </g>
</svg>
