<svg xmlns="http://www.w3.org/2000/svg" width="53" height="53" viewBox="0 0 53 53">
  <g id="Group_410" data-name="Group 410" transform="translate(-184 -202)">
    <g id="Ellipse_901" data-name="Ellipse 901" transform="translate(184 202)" fill="#F8E03E" stroke="#fff" stroke-width="1">
      <circle cx="26.5" cy="26.5" r="26.5" stroke="none"/>
      <circle cx="26.5" cy="26.5" r="26" fill="none"/>
    </g>
    <g id="Layer_27" data-name="Layer 27" transform="translate(197.311 213.423)">
      <path id="Path_427" data-name="Path 427" d="M15.147,15.958h8.737a.607.607,0,0,0,.587-.607V10.357a.607.607,0,0,0-.607-.607H15.127a.607.607,0,0,0-.587.607v4.995A.607.607,0,0,0,15.147,15.958Zm.587-4.995h7.524v3.762H15.734Z" transform="translate(-8.817 -6.352)"/>
      <path id="Path_428" data-name="Path 428" d="M8.927,27.393H12.98a.607.607,0,0,0,0-1.213H8.927a.607.607,0,0,0,0,1.213Z" transform="translate(-5.616 -14.807)"/>
      <path id="Path_429" data-name="Path 429" d="M29.083,6.633h-4.7V4.813A2.063,2.063,0,0,0,22.316,2.75H4.813A2.068,2.068,0,0,0,2.75,4.813v24.27a2.068,2.068,0,0,0,2.063,2.063H26.292a4.854,4.854,0,0,0,4.854-4.854V8.7a2.068,2.068,0,0,0-2.063-2.063Zm-5.917.607V29.932H4.813a.854.854,0,0,1-.849-.849V4.813a.854.854,0,0,1,.849-.849h17.5a.849.849,0,0,1,.849.849Zm6.766,19.052a3.64,3.64,0,0,1-3.64,3.64H24.379V7.847h4.7a.854.854,0,0,1,.849.849Z" transform="translate(-2.75 -2.75)"/>
      <path id="Path_430" data-name="Path 430" d="M23.489,31.66H8.927a.607.607,0,1,0,0,1.213H23.489a.607.607,0,0,0,0-1.213Z" transform="translate(-5.616 -17.627)"/>
      <path id="Path_431" data-name="Path 431" d="M23.489,37.15H8.927a.607.607,0,1,0,0,1.213H23.489a.607.607,0,0,0,0-1.213Z" transform="translate(-5.616 -20.452)"/>
      <path id="Path_432" data-name="Path 432" d="M23.489,42.64H8.927a.607.607,0,0,0,0,1.213H23.489a.607.607,0,0,0,0-1.213Z" transform="translate(-5.616 -23.278)"/>
      <path id="Path_433" data-name="Path 433" d="M23.489,48.12H8.927a.607.607,0,1,0,0,1.213H23.489a.607.607,0,0,0,0-1.213Z" transform="translate(-5.616 -26.098)"/>
      <path id="Path_434" data-name="Path 434" d="M23.489,53.61H8.927a.607.607,0,0,0,0,1.213H23.489a.607.607,0,0,0,0-1.213Z" transform="translate(-5.616 -28.923)"/>
    </g>
  </g>
</svg>
