<svg xmlns="http://www.w3.org/2000/svg" width="53" height="53" viewBox="0 0 53 53">
  <g id="Group_412" data-name="Group 412" transform="translate(-716 -202)">
    <g id="Ellipse_903" data-name="Ellipse 903" transform="translate(716 202)" fill="#F8E03E" stroke="#fff" stroke-width="1">
      <circle cx="26.5" cy="26.5" r="26.5" stroke="none"/>
      <circle cx="26.5" cy="26.5" r="26" fill="none"/>
    </g>
    <g id="_18661471221608672866" data-name="18661471221608672866" transform="translate(728.261 213.364)">
      <path id="Path_422" data-name="Path 422" d="M17.009.989A1.113,1.113,0,0,1,18.215,0a1.112,1.112,0,0,1,1.206.989V5.316a1.113,1.113,0,0,1-1.206.989,1.112,1.112,0,0,1-1.206-.989V.989Zm5.3,12.936a7.662,7.662,0,1,1-2.942.581,7.675,7.675,0,0,1,2.942-.581ZM21.734,18.4a.672.672,0,0,1,.2-.476h0a.676.676,0,0,1,1.155.479V22l2.691,1.6.022.015a.657.657,0,0,1,.286.4.676.676,0,0,1-.068.5l0,.007a.088.088,0,0,1-.017.024.665.665,0,0,1-.4.283.676.676,0,0,1-.5-.068l-3.008-1.78a.7.7,0,0,1-.256-.242.662.662,0,0,1-.1-.349h0l0-3.99ZM26.8,17.131a6.3,6.3,0,1,0,1.38,2.058,6.337,6.337,0,0,0-1.38-2.058ZM3.284,14.006c-.068,0-.129-.3-.129-.669s.054-.667.129-.667H6.576c.068,0,.129.3.129.667s-.054.669-.129.669Zm5.247,0c-.068,0-.129-.3-.129-.669s.054-.667.129-.667h3.291c.068,0,.129.3.129.667s-.054.669-.129.669Zm5.247,0c-.068,0-.129-.3-.129-.669s.054-.667.129-.667H17.07c.068,0,.129.3.129.664a9.94,9.94,0,0,0-.95.671ZM3.291,17.834c-.068,0-.129-.3-.129-.669s.054-.669.129-.669H6.583c.068,0,.129.3.129.669s-.054.669-.129.669Zm5.247,0c-.068,0-.129-.3-.129-.669s.054-.669.129-.669H11.83c.068,0,.129.3.129.669s-.054.669-.129.669ZM3.3,21.665c-.068,0-.129-.3-.129-.669s.054-.669.129-.669H6.59c.068,0,.129.3.129.669s-.054.669-.129.669Zm5.247,0c-.068,0-.129-.3-.129-.669s.054-.669.129-.669h3.291c.068,0,.129.3.129.669s-.054.669-.129.669ZM6.175.989A1.113,1.113,0,0,1,7.381,0,1.112,1.112,0,0,1,8.588.989V5.316A1.115,1.115,0,0,1,7.381,6.3a1.112,1.112,0,0,1-1.206-.989V.989ZM1.328,9.459H24.3V4.478a.6.6,0,0,0-.178-.43.614.614,0,0,0-.43-.178h-2.2a.669.669,0,0,1,0-1.338h2.2a1.951,1.951,0,0,1,1.948,1.948v7.909a10.065,10.065,0,0,0-1.355-.364V10.79H1.328v12.9a.6.6,0,0,0,.178.43.614.614,0,0,0,.43.178H12.853a9.8,9.8,0,0,0,.469,1.35H1.948a1.94,1.94,0,0,1-1.377-.571A1.925,1.925,0,0,1,0,23.7V4.483A1.951,1.951,0,0,1,1.948,2.535H4.3a.669.669,0,1,1,0,1.338H1.948a.6.6,0,0,0-.43.178.614.614,0,0,0-.178.43V9.462H1.328ZM10.516,3.87a.669.669,0,1,1,0-1.338H15A.669.669,0,1,1,15,3.87Z" transform="translate(0 0)"/>
    </g>
  </g>
</svg>
