<svg xmlns="http://www.w3.org/2000/svg" width="54" height="53" viewBox="0 0 54 53">
  <g id="Group_413" data-name="Group 413" transform="translate(-1248 -201)">
    <g id="Ellipse_905" data-name="Ellipse 905" transform="translate(1248 201)" fill="#F8E03E" stroke="#fff" stroke-width="1">
      <ellipse cx="27" cy="26.5" rx="27" ry="26.5" stroke="none"/>
      <ellipse cx="27" cy="26.5" rx="26.5" ry="26" fill="none"/>
    </g>
    <g id="Page-1" transform="translate(1263.135 212.786)">
      <g id="icon-136-document-edit" transform="translate(0 0)">
        <path id="document-edit" d="M28.8,12.153l-12.421,11.3h0l-2.868-2.606,12.427-11.3,2.861,2.6Zm.778-.708,1.9-1.732A.938.938,0,0,0,31.476,8.3l-1.3-1.177a1.181,1.181,0,0,0-1.559,0l-1.9,1.728,2.861,2.6ZM12.8,21.616l-.7,3.114,3.45-.618-2.746-2.5ZM23.91,10h0l-6.6-7H5.2A2.113,2.113,0,0,0,3,5.008V28a2.107,2.107,0,0,0,2.2,2.008H21.712a2.107,2.107,0,0,0,2.2-1.991V18l8.342-7.582a1.877,1.877,0,0,0,.011-2.831l-1.3-1.18a2.352,2.352,0,0,0-3.115.01L23.91,10Zm-1.1,9v9.009a1.051,1.051,0,0,1-1.1.994H5.2a1.057,1.057,0,0,1-1.1-1V5A1.056,1.056,0,0,1,5.2,4h11.01V9A2.1,2.1,0,0,0,18.405,11h4.4l-11.005,10-1.1,5,5.5-1,6.6-6Zm-5.5-14.5V8.993A1.059,1.059,0,0,0,18.4,10H22.48L17.307,4.5Z" transform="translate(-3 -3)" fill-rule="evenodd"/>
      </g>
    </g>
  </g>
</svg>
