<svg xmlns="http://www.w3.org/2000/svg" width="25.589" height="31.215" viewBox="0 0 25.589 31.215">
  <g id="_20114326531640255363" data-name="20114326531640255363" transform="translate(-2)">
    <path id="Path_418" data-name="Path 418" d="M24.523,1.951H16.466a4.431,4.431,0,0,0-7.343,0H1.066A1.023,1.023,0,0,0,0,2.926V30.239a1.023,1.023,0,0,0,1.066.975H24.523a1.023,1.023,0,0,0,1.066-.975V2.926A1.023,1.023,0,0,0,24.523,1.951Zm-11.728,0a1.024,1.024,0,0,1,1.066.975,1.07,1.07,0,0,1-2.132,0A1.024,1.024,0,0,1,12.794,1.951ZM23.456,29.264H2.132V3.9h6.4v.975A1.023,1.023,0,0,0,9.6,5.853h6.4a1.023,1.023,0,0,0,1.066-.975V3.9h6.4Z" transform="translate(2)" fill="#7c828d"/>
    <g id="Group_376" data-name="Group 376" transform="translate(7.276 11.991)">
      <path id="Path_419" data-name="Path 419" d="M5.567,10.848,0,5.281,1.379,3.9,5.567,8.09,13.657,0l1.379,1.379Z" transform="translate(0 0)" fill="#7c828d"/>
    </g>
  </g>
</svg>
