<svg xmlns="http://www.w3.org/2000/svg" version="1.1" viewBox="87.5 17.5 525 525" style="fill: #CECECE;">
 <path d="m350 17.5c-144.88 0-262.5 117.62-262.5 262.5s117.62 262.5 262.5 262.5 262.5-117.62 262.5-262.5-117.62-262.5-262.5-262.5zm-24.746 262.5-75.125 75.129c-6.8281 6.8242-6.8281 17.918 0 24.742 6.8242 6.8281 17.918 6.8281 24.742 0l75.129-75.125 75.129 75.125c6.8242 6.8281 17.918 6.8281 24.742 0 6.8281-6.8242 6.8281-17.918 0-24.742l-75.125-75.129 75.125-75.129c6.8281-6.8242 6.8281-17.918 0-24.742-6.8242-6.8281-17.918-6.8281-24.742 0l-75.129 75.125-75.129-75.125c-6.8242-6.8281-17.918-6.8281-24.742 0-6.8281 6.8242-6.8281 17.918 0 24.742z" fill-rule="evenodd"/>
</svg>