<svg xmlns="http://www.w3.org/2000/svg" width="26.071" height="26.071" viewBox="0 0 26.071 26.071">
  <path id="connect-o-svgrepo-com" d="M20.368,14.665a5.4,5.4,0,0,0-3.911,1.629l-5.214-2.77a3.588,3.588,0,0,0,.163-1.3v-.652l4.725-2.118a5.52,5.52,0,0,0,4.237,1.955,5.773,5.773,0,0,0,5.7-5.7,5.7,5.7,0,1,0-11.406,0v.652L9.94,8.473A5.52,5.52,0,0,0,5.7,6.518a5.773,5.773,0,0,0-5.7,5.7,5.773,5.773,0,0,0,5.7,5.7,5.4,5.4,0,0,0,3.911-1.629l5.051,2.77v1.3a5.7,5.7,0,1,0,5.7-5.7Zm0-13.036A4.034,4.034,0,0,1,24.442,5.7a4.074,4.074,0,0,1-8.147,0A4.034,4.034,0,0,1,20.368,1.629ZM5.7,16.295a4.074,4.074,0,1,1,0-8.147,4.074,4.074,0,1,1,0,8.147Zm14.665,8.147a4.074,4.074,0,1,1,4.074-4.074A4.034,4.034,0,0,1,20.368,24.442Z" fill="#7c828d"/>
</svg>
