<svg xmlns="http://www.w3.org/2000/svg" width="54" height="53" viewBox="0 0 54 53">
  <g id="Group_1334" data-name="Group 1334" transform="translate(-974 -212)">
    <g id="Ellipse_904" data-name="Ellipse 904" transform="translate(974 212)" fill="#F8E03E" stroke="#fff" stroke-width="1">
      <ellipse cx="27" cy="26.5" rx="27" ry="26.5" stroke="none"/>
      <ellipse cx="27" cy="26.5" rx="26.5" ry="26" fill="none"/>
    </g>
    <g id="money-recive-svgrepo-com" transform="translate(984.877 223.526)">
      <path id="Path_1073" data-name="Path 1073" d="M9.5,15.71a2.348,2.348,0,0,0,2.292,2.4h2.581a2.044,2.044,0,0,0,1.99-2.1A1.813,1.813,0,0,0,15,14.022l-4.132-1.441a1.8,1.8,0,0,1-1.359-1.99,2.053,2.053,0,0,1,1.99-2.1h2.581a2.348,2.348,0,0,1,2.292,2.4" transform="translate(2.795 2.419)" fill="none" stroke="#292d32" stroke-linecap="round" stroke-linejoin="round" stroke-width="1.5"/>
      <path id="Path_1074" data-name="Path 1074" d="M12,7.5V19.854" transform="translate(3.727 2.05)" fill="none" stroke="#292d32" stroke-linecap="round" stroke-linejoin="round" stroke-width="1.5"/>
      <path id="Path_1075" data-name="Path 1075" d="M29.454,15.727A13.727,13.727,0,1,1,15.727,2" transform="translate(0 0)" fill="none" stroke="#292d32" stroke-linecap="round" stroke-linejoin="round" stroke-width="1.5"/>
      <path id="Path_1076" data-name="Path 1076" d="M17,3V8.491h5.491" transform="translate(5.59 0.373)" fill="none" stroke="#292d32" stroke-linecap="round" stroke-linejoin="round" stroke-width="1.5"/>
      <path id="Path_1077" data-name="Path 1077" d="M23.863,2,17,8.863" transform="translate(5.59 0)" fill="none" stroke="#292d32" stroke-linecap="round" stroke-linejoin="round" stroke-width="1.5"/>
    </g>
  </g>
</svg>
