<svg xmlns="http://www.w3.org/2000/svg" width="29.044" height="29" viewBox="0 0 29.044 29">
  <g id="_29702287916312011174129" data-name="29702287916312011174129" transform="translate(-2.502 -2.52)">
    <path id="Path_367" data-name="Path 367" d="M17.718,3.87l13.36,7.616L17.934,19.1,3.87,11.486Z" transform="translate(-0.695 -0.685)" fill="#7c828d"/>
    <path id="Path_368" data-name="Path 368" d="M31.545,17.032a.743.743,0,0,0-.384-.65l-4.5-2.461,4.5-2.461a.738.738,0,0,0,0-1.295L17.377,2.609a.753.753,0,0,0-.709,0L2.885,10.14a.738.738,0,0,0,0,1.295l4.5,2.461-4.5,2.461a.743.743,0,0,0,0,1.3l4.5,2.461-4.5,2.461a.743.743,0,0,0,0,1.3l13.784,7.552a.753.753,0,0,0,.709,0l13.784-7.507a.743.743,0,0,0,0-1.3l-4.5-2.461,4.5-2.461a.743.743,0,0,0,.384-.669ZM17.023,4.09,29.271,10.8,17.023,17.525,4.775,10.8ZM29.271,23.264l-12.248,6.71L4.775,23.264l4.15-2.294,7.743,4.243a.753.753,0,0,0,.709,0l7.743-4.243Zm-12.248.478L4.775,17.032l4.15-2.274L16.669,19a.719.719,0,0,0,.709,0l7.743-4.243,4.15,2.274Z" transform="translate(0)" fill="#7c828d"/>
  </g>
</svg>
