<svg xmlns="http://www.w3.org/2000/svg" width="8.882" height="5.598" viewBox="0 0 8.882 5.598">
  <g id="chevron-arrow-down" transform="translate(-364 37.774)">
    <path id="Path_136" data-name="Path 136" d="M8.671,82.864l-.427-.428a.73.73,0,0,0-.519-.211.7.7,0,0,0-.513.211L4.441,85.208,1.67,82.437a.7.7,0,0,0-.513-.211.73.73,0,0,0-.519.211l-.422.428A.707.707,0,0,0,0,83.383a.678.678,0,0,0,.217.513l3.711,3.711a.678.678,0,0,0,.513.217.707.707,0,0,0,.519-.217L8.671,83.9a.7.7,0,0,0,.211-.513A.73.73,0,0,0,8.671,82.864Z" transform="translate(364 -120)" fill="#fff"/>
  </g>
</svg>
