<svg xmlns="http://www.w3.org/2000/svg" width="10.768" height="15.287" viewBox="0 0 10.768 15.287">
  <g id="Group_1341" data-name="Group 1341" transform="translate(-283.95 -403.213)">
    <path id="sort-up-svgrepo-com" d="M26.8,63.237H17.84a.9.9,0,0,1-.64-1.543l4.479-4.479a.9.9,0,0,1,1.276,0l4.479,4.479A.9.9,0,0,1,26.8,63.237Z" transform="translate(267.016 346.263)" fill="#c7c7c7"/>
    <path id="sort-up-svgrepo-com-2" data-name="sort-up-svgrepo-com" d="M26.8,56.95H17.84a.9.9,0,0,0-.64,1.543l4.479,4.479a.9.9,0,0,0,1.276,0l4.479-4.479A.9.9,0,0,0,26.8,56.95Z" transform="translate(267.016 355.263)" fill="#c7c7c7"/>
  </g>
</svg>
