<svg xmlns="http://www.w3.org/2000/svg" width="19.001" height="19" viewBox="0 0 19.001 19">
  <g id="edit_copy" data-name="edit copy" transform="translate(0 -0.501)">
    <path id="Path_441" data-name="Path 441" d="M15.042,92.15a.791.791,0,0,0-.792.792v6.334a.792.792,0,0,1-.792.792H2.375a.792.792,0,0,1-.792-.792V88.191a.792.792,0,0,1,.792-.792H8.709a.792.792,0,0,0,0-1.583H2.375A2.378,2.378,0,0,0,0,88.191V99.275a2.378,2.378,0,0,0,2.375,2.375H13.459a2.378,2.378,0,0,0,2.375-2.375V92.942A.791.791,0,0,0,15.042,92.15Zm0,0" transform="translate(0 -82.149)" fill="#9f9f9f"/>
    <path id="Path_442" data-name="Path 442" d="M182.484,74.526a.4.4,0,0,0-.108.2l-.56,2.8A.4.4,0,0,0,182.2,78a.377.377,0,0,0,.078-.008l2.8-.56a.394.394,0,0,0,.2-.109l6.264-6.264-2.8-2.8Zm0,0" transform="translate(-175.061 -65.246)" fill="#9f9f9f"/>
    <path id="Path_443" data-name="Path 443" d="M395.34,1.08a1.981,1.981,0,0,0-2.8,0l-1.1,1.1,2.8,2.8,1.1-1.1a1.979,1.979,0,0,0,0-2.8Zm0,0" transform="translate(-376.919)" fill="#9f9f9f"/>
  </g>
</svg>
