<svg xmlns="http://www.w3.org/2000/svg" width="16" height="15.999" viewBox="0 0 16 15.999">
  <g id="edit_copy" data-name="edit copy" transform="translate(0 -0.501)">
    <path id="Path_156" data-name="Path 156" d="M11.522,90.668a.606.606,0,0,0-.606.606v4.851a.607.607,0,0,1-.606.606H1.819a.607.607,0,0,1-.606-.606v-8.49a.607.607,0,0,1,.606-.606H6.671a.606.606,0,0,0,0-1.213H1.819A1.822,1.822,0,0,0,0,87.636v8.49a1.822,1.822,0,0,0,1.819,1.819h8.49a1.822,1.822,0,0,0,1.819-1.819V91.274A.606.606,0,0,0,11.522,90.668Zm0,0" transform="translate(0 -81.445)" fill="#6c6c6c"/>
    <path id="Path_157" data-name="Path 157" d="M182.326,73.06a.307.307,0,0,0-.083.155l-.429,2.144a.3.3,0,0,0,.3.363.288.288,0,0,0,.059-.006l2.144-.429a.3.3,0,0,0,.155-.083l4.8-4.8-2.144-2.144Zm0,0" transform="translate(-175.194 -65.835)" fill="#6c6c6c"/>
    <path id="Path_158" data-name="Path 158" d="M394.428.944a1.517,1.517,0,0,0-2.144,0l-.839.839,2.144,2.144.839-.839a1.516,1.516,0,0,0,0-2.144Zm0,0" transform="translate(-378.872 0)" fill="#6c6c6c"/>
  </g>
</svg>
