<svg xmlns="http://www.w3.org/2000/svg" width="26" height="31.2" viewBox="0 0 26 31.2">
  <g id="_5380375571623073532" data-name="5380375571623073532" transform="translate(-16.667 -10)">
    <path id="Path_391" data-name="Path 391" d="M16.667,43.33a18.2,18.2,0,0,0,18.2,18.2v-2.6a15.6,15.6,0,0,1-15.6-15.6Z" transform="translate(0 -20.331)" fill="#7c828d"/>
    <path id="Path_392" data-name="Path 392" d="M43,12.6a10.4,10.4,0,0,0,0,20.8V36a13,13,0,0,1,0-26Z" transform="translate(-8.133)" fill="#7c828d"/>
    <path id="Path_393" data-name="Path 393" d="M56.333,31.133a5.2,5.2,0,1,0-5.2,5.2v2.6a7.8,7.8,0,1,1,7.8-7.8Z" transform="translate(-16.266 -8.133)" fill="#7c828d"/>
  </g>
</svg>
