<svg xmlns="http://www.w3.org/2000/svg" width="24" height="14.306" viewBox="0 0 24 14.306">
  <g id="eye-svgrepo-com" transform="translate(0 -98.725)">
    <path id="Path_8987" data-name="Path 8987" d="M12,98.725c-4.585,0-8.744,2.509-11.812,6.584a.95.95,0,0,0,0,1.134c3.068,4.08,7.227,6.589,11.812,6.589s8.744-2.509,11.812-6.584a.95.95,0,0,0,0-1.134C20.744,101.234,16.585,98.725,12,98.725Zm.329,12.19a5.048,5.048,0,1,1,4.708-4.708A5.051,5.051,0,0,1,12.329,110.915Zm-.152-2.327a2.718,2.718,0,1,1,2.538-2.538A2.714,2.714,0,0,1,12.177,108.588Z" transform="translate(0 0)" fill="#c6c6c6"/>
  </g>
</svg>
