<svg xmlns="http://www.w3.org/2000/svg" width="36.276" height="36.276" viewBox="0 0 36.276 36.276">
  <g id="Layer_1" transform="translate(0)">
    <path id="Path_472" data-name="Path 472" d="M33.5,1H4.779A3.783,3.783,0,0,0,1,4.779V33.5a3.783,3.783,0,0,0,3.779,3.779H20.649V22.917H16.115V18.382h4.534V15.359a8.323,8.323,0,0,1,8.313-8.313H31.23V11.58H28.963a3.783,3.783,0,0,0-3.779,3.779v3.023h5.945l-.567,4.534H25.184V37.276H33.5A3.783,3.783,0,0,0,37.276,33.5V4.779A3.783,3.783,0,0,0,33.5,1Zm2.267,32.5A2.27,2.27,0,0,1,33.5,35.764H26.7V24.428h5.2l.945-7.557H26.7V15.359a2.27,2.27,0,0,1,2.267-2.267h3.779V5.534H28.963a9.836,9.836,0,0,0-9.825,9.825v1.511H14.6v7.557h4.534V35.764H4.779A2.27,2.27,0,0,1,2.511,33.5V4.779A2.27,2.27,0,0,1,4.779,2.511H33.5a2.27,2.27,0,0,1,2.267,2.267Z" transform="translate(-1 -1)" fill="#848484"/>
  </g>
</svg>
