<svg xmlns="http://www.w3.org/2000/svg" width="28" height="28" viewBox="0 0 28 28">
  <g id="Image" transform="translate(-2 -2)">
    <path id="Path_439" data-name="Path 439" d="M25,2H7A5,5,0,0,0,2,7V25a5,5,0,0,0,5,5H25a5,5,0,0,0,5-5V7A5,5,0,0,0,25,2ZM7,4H25a3,3,0,0,1,3,3v5.59l-1.88-1.88a3,3,0,0,0-4.24,0l-7.95,8-3-2.42a3,3,0,0,0-3.8,0L4,18.86V7A3,3,0,0,1,7,4ZM25,28H7a3,3,0,0,1-3-3V21.47l4.38-3.66a1,1,0,0,1,1.27,0l3.73,3a1,1,0,0,0,1.33-.07l8.58-8.59a1,1,0,0,1,1.42,0L28,15.41V25a3,3,0,0,1-3,3Z" fill="#7c828d"/>
    <path id="Path_440" data-name="Path 440" d="M10,13a3,3,0,1,0-3-3,3,3,0,0,0,3,3Zm0-4a1,1,0,1,1-1,1A1,1,0,0,1,10,9Z" fill="#7c828d"/>
  </g>
</svg>
