<svg xmlns="http://www.w3.org/2000/svg" width="45" height="42" viewBox="0 0 45 42">
  <g id="Group_415" data-name="Group 415" transform="translate(-1486 -343)">
    <g id="Rectangle_54" data-name="Rectangle 54" transform="translate(1486 343)" fill="#f4f4f4" stroke="#fff" stroke-width="1">
      <rect width="45" height="42" rx="6" stroke="none"/>
      <rect x="0.5" y="0.5" width="44" height="41" rx="5.5" fill="none"/>
    </g>
    <g id="_-Product-Icons" data-name="ðŸ”-Product-Icons" transform="translate(1499.115 354.78)">
      <g id="ic_fluent_grid_28_filled" transform="translate(0 0)">
        <path id="_-Color" data-name="ðŸŽ¨-Color" d="M9.5,13.058a1.886,1.886,0,0,1,1.886,1.886v4.61A1.886,1.886,0,0,1,9.5,21.439H4.886A1.886,1.886,0,0,1,3,19.553v-4.61a1.886,1.886,0,0,1,1.886-1.886Zm10.058,0a1.886,1.886,0,0,1,1.886,1.886v4.61a1.886,1.886,0,0,1-1.886,1.886h-4.61a1.886,1.886,0,0,1-1.886-1.886v-4.61a1.886,1.886,0,0,1,1.886-1.886ZM9.5,3a1.886,1.886,0,0,1,1.886,1.886V9.5A1.886,1.886,0,0,1,9.5,11.381H4.886A1.886,1.886,0,0,1,3,9.5V4.886A1.886,1.886,0,0,1,4.886,3ZM19.553,3a1.886,1.886,0,0,1,1.886,1.886V9.5a1.886,1.886,0,0,1-1.886,1.886h-4.61A1.886,1.886,0,0,1,13.058,9.5V4.886A1.886,1.886,0,0,1,14.944,3Z" transform="translate(-3 -3)" fill="#171616"/>
      </g>
    </g>
  </g>
</svg>
