<svg xmlns="http://www.w3.org/2000/svg" width="14" height="14" viewBox="0 0 14 14">
  <g id="info-button" transform="translate(0 0)">
    <g id="Group_426" data-name="Group 426" transform="translate(0 0)">
      <path id="Path_477" data-name="Path 477" d="M11.95,2.05a7,7,0,1,0,0,9.9A7,7,0,0,0,11.95,2.05ZM7.913,10.043a.913.913,0,0,1-1.826,0V6.391a.913.913,0,0,1,1.826,0ZM6.984,4.831A.814.814,0,0,1,6.118,4a.814.814,0,0,1,.876-.843.84.84,0,1,1-.011,1.676Z" transform="translate(0 0)" fill="#7c828d"/>
    </g>
  </g>
</svg>
