<svg xmlns="http://www.w3.org/2000/svg" width="32.969" height="33.21" viewBox="0 0 32.969 33.21">
  <g id="_12790606691595601832" data-name="12790606691595601832" transform="translate(-3 -2.722)">
    <path id="Path_430" data-name="Path 430" d="M23.69,19.4l5.655,5.655a2.6,2.6,0,0,1,0,3.77h0a2.6,2.6,0,0,1-3.77,0L17.9,21.15" transform="translate(4.816 5.298)" fill="none" stroke="#fff700" stroke-linecap="round" stroke-linejoin="round" stroke-width="2"/>
    <circle id="Ellipse_909" data-name="Ellipse 909" cx="11.886" cy="11.886" r="11.886" transform="translate(4 3.722)" fill="none" stroke="#fff700" stroke-linecap="round" stroke-linejoin="round" stroke-width="2"/>
    <path id="check" d="M4.7,9.748a.626.626,0,0,1-.886,0L.275,6.211a.939.939,0,0,1,0-1.328L.718,4.44a.939.939,0,0,1,1.329,0L4.255,6.648,10.221.682a.939.939,0,0,1,1.329,0l.443.443a.939.939,0,0,1,0,1.328Zm0,0" transform="translate(9.263 11.352)" fill="#fff700"/>
  </g>
</svg>
