<svg xmlns="http://www.w3.org/2000/svg" width="31.201" height="31.2" viewBox="0 0 31.201 31.2">
  <path id="_4327620601579156635" data-name="4327620601579156635" d="M11.7,0H3.9A3.9,3.9,0,0,0,0,3.9V27.3a3.9,3.9,0,0,0,3.9,3.9H17.94a3.9,3.9,0,0,0,3.9-3.9V9.36L12.48,0Zm8.58,27.3a2.342,2.342,0,0,1-2.34,2.34H3.9A2.342,2.342,0,0,1,1.56,27.3V3.9A2.342,2.342,0,0,1,3.9,1.56h7.8V6.24a3.9,3.9,0,0,0,3.9,3.9h4.68ZM18.854,8.58H15.6a2.342,2.342,0,0,1-2.34-2.34V2.986ZM31.2,14.04a.78.78,0,0,0-.78-.78H28.86V11.7a2.338,2.338,0,0,0-2.34-2.339h0A2.339,2.339,0,0,0,24.18,11.7V27.3a2.339,2.339,0,0,0,1.56,2.2v.914a.78.78,0,0,0,1.56,0V29.5a2.339,2.339,0,0,0,1.561-2.2V14.82h.78v1.56a.78.78,0,1,0,1.56,0Zm-4.68-3.12a.779.779,0,0,1,.78.78h0v1.56H25.74V11.7h0a.756.756,0,0,1,.034-.221.8.8,0,0,1,.194-.33.781.781,0,0,1,.532-.226h.019Zm0,17.16h0a.781.781,0,0,1-.779-.78V14.82H27.3V27.3a.781.781,0,0,1-.779.78ZM6.24,15.6a.78.78,0,0,1,.78-.78H11.7a.78.78,0,0,1,0,1.56H7.02A.78.78,0,0,1,6.24,15.6Zm9.36,3.12a.78.78,0,0,1-.78.78H7.02a.78.78,0,1,1,0-1.56h7.8A.78.78,0,0,1,15.6,18.72Zm-.023,3.12a.78.78,0,0,1-.78.78H7.02a.78.78,0,1,1,0-1.56H14.8a.78.78,0,0,1,.78.78Z" fill="#7c828d"/>
</svg>
