<svg xmlns="http://www.w3.org/2000/svg" width="40" height="40" viewBox="0 0 40 40">
  <g id="Group_4041" data-name="Group 4041" transform="translate(-1338 -23)">
    <g id="Ellipse_1471" data-name="Ellipse 1471" transform="translate(1339 24)" fill="#25232F" stroke="#4a4a4a" stroke-width="1">
      <circle cx="19" cy="19" r="19" stroke="none"/>
      <circle cx="19" cy="19" r="19.5" fill="none"/>
    </g>
    <path id="Path_8995" data-name="Path 8995" d="M388.441,386.519l-8.376-8.376-1.433.444-.445,1.439,8.374,8.374a1.33,1.33,0,0,0,.94.389,1.336,1.336,0,0,0,1.33-1.326,1.34,1.34,0,0,0-.389-.944" transform="translate(979.305 -335.654)" fill="#fff700"/>
    <path id="Path_8996" data-name="Path 8996" d="M204.156,198.653a.389.389,0,0,0-.158-.378L200.784,196l.046-3.939a.386.386,0,0,0-.617-.312l-3.157,2.351-3.727-1.264a.386.386,0,0,0-.49.489l1.264,3.727-2.355,3.16a.385.385,0,0,0-.035.4.4.4,0,0,0,.347.212l3.943-.05,2.274,3.214a.386.386,0,0,0,.316.162.354.354,0,0,0,.062,0,.4.4,0,0,0,.308-.266l1.164-3.762,3.762-1.164a.4.4,0,0,0,.266-.308" transform="translate(1157.192 -157.809)" fill="#fff700"/>
  </g>
</svg>
