<svg id="Layer_1" xmlns="http://www.w3.org/2000/svg" width="18.549" height="18.549" viewBox="0 0 18.549 18.549">
  <path id="Path_423" data-name="Path 423" d="M10.275,1a9.241,9.241,0,0,0-3.226.577l.269.725a8.535,8.535,0,1,1-2.453,1.42V6.41h.773V2.546H1.773v.773H4.14A9.274,9.274,0,1,0,10.275,1Z" transform="translate(-1 -1)"/>
  <path id="Path_424" data-name="Path 424" d="M17.773,21.956H17v.773h6.183v-.773H22.41V20.637l-1.772-1.772,1.772-1.772V15.773h.773V15H17v.773h.773v1.319l1.772,1.772-1.772,1.772Zm.773-5.184v-1h3.092v1l-1.546,1.546Zm1.546,2.639,1.546,1.546v1H18.546v-1Z" transform="translate(-10.817 -9.59)"/>
  <rect id="Rectangle_408" data-name="Rectangle 408" width="0.812" height="1.625" transform="translate(7.137 14.097)"/>
  <rect id="Rectangle_409" data-name="Rectangle 409" width="0.812" height="1.625" transform="translate(8.762 14.097)"/>
  <rect id="Rectangle_410" data-name="Rectangle 410" width="0.812" height="1.625" transform="translate(11.199 14.097)"/>
</svg>
