<svg xmlns="http://www.w3.org/2000/svg" width="23.48" height="30.366" viewBox="0 0 23.48 30.366">
  <g id="Group_381" data-name="Group 381" transform="translate(-1248.52 -403.259)">
    <g id="_20163185001641072512" data-name="20163185001641072512" transform="translate(1232.655 395.107)" fill="#7c828d">
      <path d="M 27.30689430236816 33.38389587402344 C 26.49007415771484 33.38389587402344 25.69420433044434 33.22314453125 24.94140434265137 32.90612411499023 C 23.47654342651367 32.28557586669922 22.32820510864258 31.13722610473633 21.70771408081055 29.67255592346191 C 21.07455444335938 28.16904640197754 21.07455444335938 26.44467544555664 21.70763397216797 24.94137573242188 C 22.32820510864258 23.47650527954102 23.47654342651367 22.32815551757812 24.94120407104492 21.70767593383789 C 25.69420433044434 21.39057540893555 26.49007415771484 21.22983551025391 27.30689430236816 21.22983551025391 C 28.12371444702148 21.22983551025391 28.91958427429199 21.39057540893555 29.67238426208496 21.70759582519531 C 31.13725471496582 22.32816505432129 32.28559494018555 23.47650527954102 32.90608596801758 24.94117546081543 C 33.53923416137695 26.44467544555664 33.53923416137695 28.1690559387207 32.90616607666016 29.67235565185547 C 32.28559494018555 31.13722610473633 31.13724517822266 32.28556442260742 29.67258453369141 32.90604400634766 C 28.91958427429199 33.22314453125 28.12371444702148 33.38389587402344 27.30689430236816 33.38389587402344 Z M 23.49704551696777 24.4068660736084 C 22.86310577392578 25.23620986938477 22.51570892333984 26.26151084899902 22.51667404174805 27.30677604675293 C 22.51667404174805 29.94820594787598 24.66556358337402 32.09708404541016 27.30690383911133 32.09708404541016 C 28.35487365722656 32.09708404541016 29.37878227233887 31.74968719482422 30.20690155029297 31.11671447753906 L 23.49704551696777 24.4068660736084 Z M 24.40689659118652 23.49701690673828 L 31.11674308776855 30.20686340332031 C 31.75068283081055 29.37751197814941 32.09809112548828 28.35221099853516 32.09712600708008 27.30695533752441 C 32.09712600708008 24.66552543640137 29.94824409484863 22.51663589477539 27.30690383911133 22.51663589477539 L 27.30247497558594 22.51663589477539 C 26.25879096984863 22.51663589477539 25.23501396179199 22.86404418945312 24.40689659118652 23.49701690673828 Z" stroke="none"/>
      <path d="M 27.30689430236816 21.329833984375 C 26.51551628112793 21.329833984375 25.72414016723633 21.48647689819336 24.98021507263184 21.79975509643555 C 23.54735374450684 22.40676498413086 22.40679550170898 23.54732513427734 21.7997932434082 24.98018646240234 C 21.17322540283203 26.46802520751953 21.17322540283203 28.14569664001465 21.7997932434082 29.633544921875 C 22.40679550170898 31.06640625 23.54735374450684 32.20696640014648 24.98021507263184 32.81396484375 C 26.46806526184082 33.44053649902344 28.14572334289551 33.44053649902344 29.63357353210449 32.81396484375 C 31.06643486022949 32.20696640014648 32.20699310302734 31.06640625 32.81400299072266 29.633544921875 C 33.44056701660156 28.14569664001465 33.44056701660156 26.4680347442627 32.81400299072266 24.98018646240234 C 32.20699310302734 23.54732513427734 31.06643486022949 22.40676498413086 29.63357353210449 21.79975509643555 C 28.8896484375 21.48647689819336 28.0982723236084 21.329833984375 27.30689430236816 21.329833984375 M 31.1258544921875 30.35739517211914 L 24.2563648223877 23.48790550231934 C 25.12140464782715 22.79358291625977 26.19912910461426 22.41561126708984 27.30690383911133 22.41664505004883 C 30.00339508056641 22.41664505004883 32.19712448120117 24.61036491394043 32.19712448120117 27.30686569213867 C 32.19813537597656 28.41608619689941 31.82017517089844 29.49236488342285 31.1258544921875 30.35739517211914 M 27.31138229370117 32.19709777832031 C 27.3098258972168 32.19709777832031 27.30846214294434 32.19709777832031 27.30690383911133 32.19709777832031 L 27.30690383911133 32.19708633422852 C 24.61039352416992 32.19708633422852 22.41666412353516 30.00336647033691 22.41666412353516 27.30686569213867 C 22.41565322875977 26.19764518737793 22.79361343383789 25.12136650085449 23.48793411254883 24.2563362121582 L 30.35743522644043 31.12582588195801 C 29.49360847473145 31.81917190551758 28.41894340515137 32.19709777832031 27.31138229370117 32.19709777832031 M 27.30689430236816 21.12983703613281 C 28.13711357116699 21.12983703613281 28.946044921875 21.29321670532227 29.71119499206543 21.61543655395508 C 31.20029449462891 22.24626541137695 32.36749267578125 23.41346549987793 32.99816513061523 24.90216636657715 C 33.64178466796875 26.4305362701416 33.64178466796875 28.18319511413574 32.99832153320312 29.71116638183594 C 32.36749267578125 31.20027542114258 31.20029449462891 32.36746597290039 29.71158409118652 32.99812316894531 C 28.94602394104004 33.32051849365234 28.13710403442383 33.48389434814453 27.30689430236816 33.48389434814453 C 26.47667503356934 33.48389434814453 25.66775512695312 33.32051849365234 24.9025936126709 32.99828338623047 C 23.41348457336426 32.36746597290039 22.24629592895508 31.20027542114258 21.61563491821289 29.71155548095703 C 20.97200393676758 28.18319511413574 20.97200393676758 26.4305248260498 21.61547470092773 24.90256500244141 C 22.24629592895508 23.41346549987793 23.41348457336426 22.24626541137695 24.90219497680664 21.61559677124023 C 25.66773414611816 21.29321670532227 26.47666358947754 21.12983703613281 27.30689430236816 21.12983703613281 Z M 31.10566711425781 30.05436897277832 C 31.68285179138184 29.25918960571289 31.99802589416504 28.29215240478516 31.99712371826172 27.30704498291016 C 31.99712371826172 24.72066497802734 29.89310455322266 22.61664581298828 27.30690383911133 22.61664581298828 C 26.31914710998535 22.61664581298828 25.35340690612793 22.93175888061523 24.55939483642578 23.50809478759766 L 31.10566711425781 30.05436897277832 Z M 30.05440521240234 31.10563850402832 L 23.50812149047852 24.55936241149902 C 22.93093681335449 25.35454177856445 22.61576271057129 26.32157897949219 22.61666488647461 27.30668640136719 C 22.61666488647461 29.89306640625 24.72069358825684 31.99708557128906 27.30690383911133 31.99708557128906 L 27.3113842010498 31.99709510803223 C 28.29495811462402 31.99709510803223 29.26041221618652 31.68198394775391 30.05440521240234 31.10563850402832 Z" stroke="none" fill="#7c828d"/>
    </g>
    <g id="_274803611543238881" data-name="274803611543238881" transform="translate(1249.52 404.259)">
      <path id="Path_434" data-name="Path 434" d="M16.083,2h-9.4A2.764,2.764,0,0,0,4,4.837V27.529a2.764,2.764,0,0,0,2.685,2.837H22.8a2.764,2.764,0,0,0,2.685-2.837v-15.6Z" transform="translate(-4 -2)" fill="none" stroke="#7c828d" stroke-linecap="round" stroke-linejoin="round" stroke-width="2"/>
      <path id="Path_435" data-name="Path 435" d="M13,2v9.4h9.4" transform="translate(-0.917 -2)" fill="none" stroke="#7c828d" stroke-linecap="round" stroke-linejoin="round" stroke-width="2"/>
    </g>
  </g>
</svg>
