<svg xmlns="http://www.w3.org/2000/svg" width="32.3" height="32.3" viewBox="0 0 32.3 32.3">
  <path id="status-online-svgrepo-com" d="M85.5,70a15.122,15.122,0,0,0-7.822,2.127,15.367,15.367,0,0,0-5.551,5.551,15.448,15.448,0,0,0,0,15.644,15.367,15.367,0,0,0,5.551,5.551,15.448,15.448,0,0,0,15.644,0,15.367,15.367,0,0,0,5.551-5.551,15.448,15.448,0,0,0,0-15.644,15.367,15.367,0,0,0-5.551-5.551A15.122,15.122,0,0,0,85.5,70Zm0,3.893a11.365,11.365,0,0,1,5.335,1.3,11.628,11.628,0,0,1,4.127,3.587A11.351,11.351,0,0,1,97,83.878H94.512a2.125,2.125,0,0,1-.919-.234,1.86,1.86,0,0,1-.739-.595l-3.1-4.109a.732.732,0,0,0-1.262,0l-5.984,8a.776.776,0,0,1-1.262,0l-1.658-2.2a2,2,0,0,0-.739-.613,1.95,1.95,0,0,0-.883-.252H74a11.351,11.351,0,0,1,2.037-5.1,11.628,11.628,0,0,1,4.127-3.587A11.365,11.365,0,0,1,85.5,73.893Zm0,23.214a11.365,11.365,0,0,1-5.335-1.3,11.628,11.628,0,0,1-4.127-3.587A11.351,11.351,0,0,1,74,87.122h2.487a2,2,0,0,1,.919.252,2.2,2.2,0,0,1,.739.577l3.1,4.145a.776.776,0,0,0,1.262,0l5.984-8a.732.732,0,0,1,1.262,0l1.658,2.2a2.2,2.2,0,0,0,.739.577,1.95,1.95,0,0,0,.883.252H97a11.351,11.351,0,0,1-2.037,5.1,11.628,11.628,0,0,1-4.127,3.587A11.365,11.365,0,0,1,85.5,97.107Z" transform="translate(-69.35 -69.35)" fill="#7C828D" stroke-width="1.3"/>
</svg>
