<svg xmlns="http://www.w3.org/2000/svg" width="53" height="53" viewBox="0 0 53 53">
  <g id="Group_1333" data-name="Group 1333" transform="translate(-176 -220)">
    <g id="Group_410" data-name="Group 410" transform="translate(-8 18)">
      <g id="Ellipse_901" data-name="Ellipse 901" transform="translate(184 202)" fill="#fff800" stroke="#fff" stroke-width="1">
        <circle cx="26.5" cy="26.5" r="26.5" stroke="none"/>
        <circle cx="26.5" cy="26.5" r="26" fill="none"/>
      </g>
    </g>
    <g id="Layer_1_1_" transform="translate(190.139 232)">
      <rect id="Rectangle_957" data-name="Rectangle 957" width="11.917" height="1.083" transform="translate(5.126 8.042)"/>
      <rect id="Rectangle_958" data-name="Rectangle 958" width="11.917" height="1.083" transform="translate(5.126 11.292)"/>
      <rect id="Rectangle_959" data-name="Rectangle 959" width="9.208" height="1.083" transform="translate(5.126 14.542)"/>
      <rect id="Rectangle_960" data-name="Rectangle 960" width="6.5" height="1.083" transform="translate(5.126 17.792)"/>
      <rect id="Rectangle_961" data-name="Rectangle 961" width="6.5" height="1.083" transform="translate(5.126 21.042)"/>
      <path id="Path_1070" data-name="Path 1070" d="M21.376,10.526V5.109L17.267,1H.793V27H21.376V17.474l5.641-5.641L23.543,8.359ZM20.835,12.6l1.942,1.942-6.5,6.5H14.335V19.1Zm-3.25-9.75,1.942,1.942H17.585V2.849Zm2.708,23.067H1.876V2.083H16.5V5.875h3.792v5.734l-7.042,7.042v3.474h3.474l3.567-3.567Zm3.25-12.141L21.6,11.833l1.942-1.942,1.942,1.942Z"/>
    </g>
  </g>
</svg>
