<svg xmlns="http://www.w3.org/2000/svg" xmlns:xlink="http://www.w3.org/1999/xlink" version="1.1" viewBox="152.25 141 396.66 287.17">
 <g>
  <path d="m218.17 428.17c3.5 0 5.832-1.168 8.168-3.5 4.668-4.668 4.668-11.668 0-16.332-68.832-68.832-68.832-179.67 0-247.33 4.668-4.668 4.668-11.668 0-16.332-4.668-4.668-11.668-4.668-16.332 0-77.004 76.996-77.004 203-0.003906 280 2.332 2.332 5.832 3.5 8.168 3.5z"/>
  <path d="m474.83 144.67c-4.668 4.668-4.668 11.668 0 16.332 68.832 68.832 68.832 179.67 0 247.33-4.668 4.668-4.668 11.668 0 16.332 2.332 2.332 5.832 3.5 8.168 3.5 2.332 0 5.832-1.168 8.168-3.5 77-77 77-203 0-281.17-4.668-3.4961-11.668-3.4961-16.336 1.1719z"/>
  <path d="m276.5 193.67c-4.668-4.668-11.668-4.668-16.332 0-50.168 50.168-50.168 131.83 0 182 2.332 2.332 5.832 3.5 8.168 3.5 2.332 0 5.832-1.168 8.168-3.5 4.668-4.668 4.668-11.668 0-16.332-40.832-40.832-40.832-107.33 0-148.17 4.6641-4.668 4.6641-12.836-0.003906-17.5z"/>
  <path d="m441 193.67c-4.668-4.668-11.668-4.668-16.332 0-4.668 4.668-4.668 11.668 0 16.332 40.832 40.832 40.832 107.33 0 148.17-4.668 4.668-4.668 11.668 0 16.332 2.332 2.332 5.832 3.5 8.168 3.5 2.332 0 5.832-1.168 8.168-3.5 50.164-49 50.164-130.67-0.003906-180.83z"/>
  <path d="m409.5 284.67c0-32.668-25.668-58.332-58.332-58.332-32.668 0-58.332 25.668-58.332 58.332 0 32.668 25.668 58.332 58.332 58.332 32.664 0 58.332-25.668 58.332-58.332zm-93.332 0c0-19.832 15.168-35 35-35s35 15.168 35 35-15.168 35-35 35c-19.836 0-35-15.168-35-35z"/>
 </g>
</svg>