<svg xmlns="http://www.w3.org/2000/svg" width="21.281" height="18.715" viewBox="0 0 21.281 18.715">
  <g id="Layer_2" data-name="Layer 2" transform="translate(-4)">
    <g id="Layer_1" data-name="Layer 1" transform="translate(4 0)">
      <path id="Path_195" data-name="Path 195" d="M21.055,7.469a.855.855,0,0,0-1.2.02L18.723,8.66a9.357,9.357,0,1,0-2.641,7.3.852.852,0,1,0-1.217-1.191,7.651,7.651,0,1,1,2.152-6.137L15.956,7.572a.852.852,0,1,0-1.2,1.2l2.571,2.571a.852.852,0,0,0,.6.249h0a.852.852,0,0,0,.605-.263l2.545-2.648a.855.855,0,0,0-.02-1.217Z" transform="translate(-0.039 -0.057)" fill="#020202"/>
    </g>
  </g>
</svg>
