<svg xmlns="http://www.w3.org/2000/svg" width="12" height="7.088" viewBox="0 0 12 7.088">
  <g id="down-arrow_1_" data-name="down-arrow (1)" transform="translate(272 -100.698)">
    <g id="Group_372" data-name="Group 372" transform="translate(-272 100.698)">
      <path id="Path_408" data-name="Path 408" d="M11.808,101.29l-.393-.4a.658.658,0,0,0-.928,0L6,105.379,1.514,100.89a.658.658,0,0,0-.928,0l-.393.393a.657.657,0,0,0,0,.928l5.345,5.364a.671.671,0,0,0,.465.211H6a.671.671,0,0,0,.464-.211l5.34-5.35a.666.666,0,0,0,0-.935Z" transform="translate(0 -100.698)" fill="#9d9d9d"/>
    </g>
  </g>
</svg>
