<svg xmlns="http://www.w3.org/2000/svg" width="31.163" height="31.118" viewBox="0 0 31.163 31.118">
  <g id="_115373458016366519295443" data-name="115373458016366519295443" transform="translate(-4.5 -4.5)">
    <path id="Path_369" data-name="Path 369" d="M33.4,16.7a5.581,5.581,0,0,1-1.448-1.583,5.846,5.846,0,0,1-.119-2.262c.085-1.34.175-2.827-.786-3.823s-2.482-.86-3.823-.769a5.859,5.859,0,0,1-2.262-.119A5.581,5.581,0,0,1,23.381,6.7C22.5,5.671,21.475,4.5,20.05,4.5S17.6,5.671,16.7,6.7A5.581,5.581,0,0,1,15.12,8.176a5.846,5.846,0,0,1-2.262.119c-1.34-.085-2.827-.175-3.823.786s-.86,2.454-.769,3.794a5.846,5.846,0,0,1-.119,2.262A5.581,5.581,0,0,1,6.7,16.72c-1.029.882-2.2,1.906-2.2,3.331S5.671,22.5,6.7,23.4a5.581,5.581,0,0,1,1.476,1.583,5.846,5.846,0,0,1,.119,2.262c-.085,1.34-.175,2.856.786,3.823s2.482.871,3.823.786a5.846,5.846,0,0,1,2.262.119,5.581,5.581,0,0,1,1.583,1.448c.9,1.029,1.923,2.2,3.348,2.2s2.448-1.171,3.348-2.2a5.581,5.581,0,0,1,1.583-1.448,5.846,5.846,0,0,1,2.262-.119c1.34.085,2.856.175,3.823-.786s.871-2.482.786-3.823a5.846,5.846,0,0,1,.119-2.262A5.581,5.581,0,0,1,33.463,23.4c1.029-.9,2.2-1.923,2.2-3.348S34.43,17.6,33.4,16.7ZM32.27,22.12a6.621,6.621,0,0,0-1.906,2.211,6.932,6.932,0,0,0-.237,3c.062,1.029.13,2.092-.3,2.516s-1.487.362-2.516.3a6.922,6.922,0,0,0-3,.237A6.621,6.621,0,0,0,22.1,32.287c-.679.769-1.4,1.617-2.053,1.617s-1.374-.848-2.07-1.617a6.621,6.621,0,0,0-2.211-1.906,4.711,4.711,0,0,0-1.8-.288,9.447,9.447,0,0,0-1.2.051c-1.029.062-2.092.124-2.516-.3s-.362-1.487-.3-2.516a6.932,6.932,0,0,0-.237-3A6.621,6.621,0,0,0,7.814,22.12c-.769-.7-1.617-1.414-1.617-2.07s.848-1.374,1.617-2.07A6.621,6.621,0,0,0,9.719,15.77a6.932,6.932,0,0,0,.237-3c-.062-1.029-.13-2.092.3-2.516s1.487-.362,2.516-.3a6.932,6.932,0,0,0,3-.237,6.621,6.621,0,0,0,2.211-1.906c.7-.769,1.414-1.617,2.07-1.617s1.374.848,2.07,1.617a6.621,6.621,0,0,0,2.211,1.906,6.848,6.848,0,0,0,3,.237c1.029-.062,2.092-.124,2.516.3s.362,1.487.3,2.516a6.932,6.932,0,0,0,.237,3,6.621,6.621,0,0,0,1.906,2.211c.769.7,1.617,1.414,1.617,2.07s-.848,1.374-1.617,2.07Z" fill="#7c828d"/>
    <path id="Path_370" data-name="Path 370" d="M28.268,23.41A4.863,4.863,0,1,0,31.7,24.835a4.858,4.858,0,0,0-3.433-1.424Zm0,8.018A3.167,3.167,0,1,1,30.5,30.5a3.161,3.161,0,0,1-2.233.927Z" transform="translate(-8.217 -8.217)" fill="#7c828d"/>
  </g>
</svg>
