<svg xmlns="http://www.w3.org/2000/svg" width="22.687" height="22.225" viewBox="0 0 22.687 22.225">
  <g id="gear-option-svgrepo-com_1_" data-name="gear-option-svgrepo-com (1)" transform="translate(0 -3.762)">
    <g id="Group_4046" data-name="Group 4046" transform="translate(0 3.762)">
      <g id="Group_4045" data-name="Group 4045" transform="translate(0 0)">
        <path id="Path_8994" data-name="Path 8994" d="M19.683,12.147l-.108-.038L19.153,11.1,19.2,11c1.277-2.9,1.189-2.982.977-3.192l-1.7-1.661a.455.455,0,0,0-.3-.118c-.1,0-.386,0-2.9,1.139l-.1.045-1.038-.418-.042-.1c-1.183-2.929-1.3-2.929-1.6-2.929H10.09c-.293,0-.427,0-1.524,2.934L8.525,6.8l-1.032.421-.1-.041A15.9,15.9,0,0,0,4.438,6.1a.457.457,0,0,0-.3.116l-1.7,1.666c-.216.213-.306.3,1.038,3.138l.049.105-.422,1-.1.04c-3,1.158-3,1.271-3,1.573V16.1c0,.3,0,.428,3,1.5l.107.038.422,1-.045.1c-1.277,2.9-1.2,2.975-.978,3.192L4.21,23.6a.468.468,0,0,0,.3.117c.1,0,.385,0,2.9-1.139l.1-.047,1.038.42.04.1c1.184,2.928,1.305,2.928,1.6,2.928H12.6c.3,0,.427,0,1.525-2.936l.041-.107,1.034-.418.1.04a15.807,15.807,0,0,0,2.952,1.083.457.457,0,0,0,.3-.116l1.707-1.67c.215-.214.3-.3-1.042-3.135l-.05-.106.421-1,.1-.039c3-1.164,3-1.278,3-1.58V13.646C22.686,13.344,22.686,13.219,19.683,12.147ZM11.343,18.7a3.822,3.822,0,1,1,3.9-3.822A3.865,3.865,0,0,1,11.343,18.7Z" transform="translate(0 -3.762)" fill="#656565"/>
      </g>
    </g>
  </g>
</svg>
