<svg xmlns="http://www.w3.org/2000/svg" width="15.438" height="19" viewBox="0 0 15.438 19">
  <g id="trash" transform="translate(-48)">
    <path id="Path_444" data-name="Path 444" d="M61.953,2.375H58.688V1.781A1.781,1.781,0,0,0,56.906,0H54.531A1.781,1.781,0,0,0,52.75,1.781v.594H49.484A1.484,1.484,0,0,0,48,3.859V5.047a.594.594,0,0,0,.594.594h14.25a.594.594,0,0,0,.594-.594V3.859A1.484,1.484,0,0,0,61.953,2.375Zm-8.016-.594a.6.6,0,0,1,.594-.594h2.375a.6.6,0,0,1,.594.594v.594H53.938Z" fill="#9f9f9f"/>
    <path id="Path_445" data-name="Path 445" d="M73.55,184a.186.186,0,0,0-.185.194l.49,10.281a1.779,1.779,0,0,0,1.779,1.7H84.65a1.779,1.779,0,0,0,1.779-1.7l.49-10.281a.186.186,0,0,0-.185-.194Zm8.967,1.484a.594.594,0,0,1,1.188,0V193.2a.594.594,0,0,1-1.187,0Zm-2.969,0a.594.594,0,0,1,1.188,0V193.2a.594.594,0,0,1-1.187,0Zm-2.969,0a.594.594,0,0,1,1.188,0V193.2a.594.594,0,0,1-1.187,0Z" transform="translate(-24.423 -177.172)" fill="#9f9f9f"/>
  </g>
</svg>
