<svg xmlns="http://www.w3.org/2000/svg" width="36" height="36" viewBox="0 0 36 36">
  <g id="Group_407" data-name="Group 407" transform="translate(-0.028 -0.007)">
    <g id="_2613189211579780469" data-name="2613189211579780469" transform="translate(6.732 7.748)">
      <path id="Path_467" data-name="Path 467" d="M12.6,28a14.252,14.252,0,0,1-7.822-2.339.636.636,0,0,1-.247-.742.617.617,0,0,1,.652-.413,9.074,9.074,0,0,0,5.525-1.094A5.557,5.557,0,0,1,7.2,19.8a.64.64,0,0,1,.125-.609.607.607,0,0,1,.221-.162,5.64,5.64,0,0,1-2.089-4.472.629.629,0,0,1,.309-.53A.6.6,0,0,1,6.315,14a5.714,5.714,0,0,1-.074-5.772.618.618,0,0,1,.485-.311.611.611,0,0,1,.525.229,13.234,13.234,0,0,0,8.865,4.916,5.665,5.665,0,0,1,1.178-3.936,5.43,5.43,0,0,1,8.071-.608,9.121,9.121,0,0,0,2.592-1.064.6.6,0,0,1,.7.05.637.637,0,0,1,.2.685,5.689,5.689,0,0,1-.668,1.41q.246-.1.486-.206a.609.609,0,0,1,.723.17.64.64,0,0,1,.041.755,10.51,10.51,0,0,1-2.322,2.539,15.53,15.53,0,0,1-4.108,10.737A13.9,13.9,0,0,1,12.6,28Zm-5-2.256a13.007,13.007,0,0,0,5,1,12.665,12.665,0,0,0,9.51-4.024,14.209,14.209,0,0,0,3.757-10.148.637.637,0,0,1,.256-.54,9.23,9.23,0,0,0,.958-.808c-.294.064-.591.113-.892.149a.618.618,0,0,1-.657-.421.638.638,0,0,1,.267-.743,4.3,4.3,0,0,0,.97-.81,10.18,10.18,0,0,1-1.491.418.606.606,0,0,1-.568-.184,4.213,4.213,0,0,0-6.458.27,4.4,4.4,0,0,0-.816,3.7.637.637,0,0,1-.128.545.609.609,0,0,1-.5.226A14.41,14.41,0,0,1,6.936,9.688a4.419,4.419,0,0,0,1.689,4.985.635.635,0,0,1,.245.714.613.613,0,0,1-.606.435,5.345,5.345,0,0,1-1.486-.258,4.358,4.358,0,0,0,3.332,3.342.632.632,0,0,1,.041,1.223,5.514,5.514,0,0,1-1.379.2,4.266,4.266,0,0,0,3.585,2.115.617.617,0,0,1,.573.428.639.639,0,0,1-.2.695A10.371,10.371,0,0,1,7.6,25.747Z" transform="translate(-4.499 -7)" fill="#848484"/>
    </g>
    <g id="Rectangle_459" data-name="Rectangle 459" transform="translate(0.028 0.007)" fill="none" stroke="#848484" stroke-width="2">
      <rect width="36" height="36" rx="6" stroke="none"/>
      <rect x="1" y="1" width="34" height="34" rx="5" fill="none"/>
    </g>
  </g>
</svg>
