<svg xmlns="http://www.w3.org/2000/svg" width="32" height="31.945" viewBox="0 0 32 31.945">
  <g id="_8209779341535694874" data-name="8209779341535694874" transform="translate(-6.3 -6.5)">
    <g id="Group_370" data-name="Group 370" transform="translate(6.3 6.5)">
      <path id="Path_396" data-name="Path 396" d="M27.029,6.5A11.211,11.211,0,0,0,16,15.545,7.027,7.027,0,0,0,6.3,22.2a6.817,6.817,0,0,0,6.818,6.818,1.127,1.127,0,0,0,0-2.254A4.57,4.57,0,0,1,8.554,22.2a4.938,4.938,0,0,1,4.536-4.976,4.749,4.749,0,0,1,3.134.99,1.161,1.161,0,0,0,1.155.137,1.132,1.132,0,0,0,.66-.99,9.007,9.007,0,0,1,18.007.357,1.338,1.338,0,0,1-.027.33v.412a8.473,8.473,0,0,1-8.467,8.3,1.127,1.127,0,1,0,0,2.254A10.735,10.735,0,0,0,38.273,18.294v-.11c0-.165.027-.3.027-.467A11.258,11.258,0,0,0,27.029,6.5Z" transform="translate(-6.3 -6.5)" fill="#7c828d"/>
      <path id="Path_397" data-name="Path 397" d="M37.71,74.63a1.128,1.128,0,0,0-1.595,0L28.83,81.915a1.127,1.127,0,1,0,1.594,1.595l5.361-5.361v8.33a1.127,1.127,0,1,0,2.254,0v-8.33l5.333,5.333a1.1,1.1,0,0,0,.8.33,1.148,1.148,0,0,0,.8-.33,1.128,1.128,0,0,0,0-1.595Z" transform="translate(-22.397 -55.661)" fill="#7c828d"/>
    </g>
  </g>
</svg>
