<svg xmlns="http://www.w3.org/2000/svg" width="27.576" height="20.619" viewBox="0 0 27.576 20.619">
  <g id="users-svgrepo-com" transform="translate(0 -3)">
    <path id="Path_447" data-name="Path 447" d="M8.155,13.309a4.78,4.78,0,1,0-4.78-4.78A4.78,4.78,0,0,0,8.155,13.309Z" transform="translate(0.417)" fill="none" stroke="#7c828d" stroke-linecap="round" stroke-linejoin="round" stroke-width="1.5"/>
    <path id="Path_448" data-name="Path 448" d="M.75,21.321a7.821,7.821,0,0,1,15.642-.041" transform="translate(0 1.547)" fill="none" stroke="#7c828d" stroke-linecap="round" stroke-linejoin="round" stroke-width="1.5"/>
    <path id="Path_449" data-name="Path 449" d="M18.262,14.571a3.911,3.911,0,1,0-3.911-3.911A3.911,3.911,0,0,0,18.262,14.571Z" transform="translate(2.159 0.476)" fill="none" stroke="#7c828d" stroke-linecap="round" stroke-linejoin="round" stroke-width="1.5"/>
    <path id="Path_450" data-name="Path 450" d="M15.814,15.122a6.4,6.4,0,0,1,8.617,5.968" transform="translate(2.391 1.742)" fill="none" stroke="#7c828d" stroke-linecap="round" stroke-linejoin="round" stroke-width="1.5"/>
  </g>
</svg>
