<svg id="user-circle-svgrepo-com" xmlns="http://www.w3.org/2000/svg" width="28" height="28" viewBox="0 0 28 28">
  <path id="Path_8973" data-name="Path 8973" d="M8,11.015a5.015,5.015,0,1,1,5.015,5.015A5.015,5.015,0,0,1,8,11.015Zm5.015-2.507a2.507,2.507,0,1,0,2.507,2.507A2.507,2.507,0,0,0,13.015,8.507Z" transform="translate(0.985 -0.01)" fill="#312b51" fill-rule="evenodd"/>
  <path id="Path_8974" data-name="Path 8974" d="M2,16A14,14,0,1,1,16,30,14,14,0,0,1,2,16ZM16,4.8A11.2,11.2,0,0,0,8.021,23.859a5.789,5.789,0,0,1,2.335-2.3A11.552,11.552,0,0,1,16,20.2a11.553,11.553,0,0,1,5.644,1.356,5.79,5.79,0,0,1,2.335,2.3A11.2,11.2,0,0,0,16,4.8Zm5.6,20.9c0-.024,0-.054,0-.1,0-.385-.286-1.008-1.345-1.613A8.782,8.782,0,0,0,16,23a8.782,8.782,0,0,0-4.255.987c-1.059.6-1.345,1.228-1.345,1.613,0,.049,0,.079,0,.1a11.214,11.214,0,0,0,11.2,0Z" transform="translate(-2 -2)" fill="#312b51" fill-rule="evenodd"/>
</svg>
