<svg id="Group_4033" data-name="Group 4033" xmlns="http://www.w3.org/2000/svg" width="23.884" height="21.894" viewBox="0 0 23.884 21.894">
  <path id="Path_8977" data-name="Path 8977" d="M8.973,0a5.473,5.473,0,1,0,5.473,5.473A5.473,5.473,0,0,0,8.973,0ZM5.49,5.473A3.483,3.483,0,1,1,8.973,8.956,3.483,3.483,0,0,1,5.49,5.473Z" transform="translate(-0.017)" fill="#1d1b28" fill-rule="evenodd"/>
  <path id="Path_8978" data-name="Path 8978" d="M15.5,0a1,1,0,0,0,0,1.99,3.483,3.483,0,0,1,0,6.966,1,1,0,1,0,0,1.99A5.473,5.473,0,1,0,15.5,0Z" transform="translate(-0.07)" fill="#1d1b28"/>
  <path id="Path_8979" data-name="Path 8979" d="M19.083,14.013a1,1,0,0,1,1.31-.514,5.972,5.972,0,0,1,3.582,5.474v1.99a1,1,0,1,1-1.99,0v-1.99a3.982,3.982,0,0,0-2.389-3.65A1,1,0,0,1,19.083,14.013Z" transform="translate(-0.092 -0.065)" fill="#1d1b28"/>
  <path id="Path_8980" data-name="Path 8980" d="M5.971,13A5.971,5.971,0,0,0,0,18.971v1.99a1,1,0,1,0,1.99,0v-1.99A3.981,3.981,0,0,1,5.971,14.99h5.971a3.981,3.981,0,0,1,3.981,3.981v1.99a1,1,0,1,0,1.99,0v-1.99A5.971,5.971,0,0,0,11.942,13Z" transform="translate(0 -0.063)" fill="#1d1b28"/>
</svg>
